{"title":"Hancock.2008.PROPER.DVDRip.XviD-EXViD","uid":6774448,"size":784377625,"categoryP":"video","categoryS":"movies","magnet":"?xt=urn:btih:50aed0f023b847f42c12ec51335addf3938330e9&amp;dn=Hancock.2008.PROPER.DVDRip.XviD-EXViD&amp;tr=udp%3A%2F%2Ftracker.openbittorrent.com%3A80&amp;tr=udp%3A%2F%2Fopen.demonii.com%3A1337&amp;tr=udp%3A%2F%2Ftracker.coppersurfer.tk%3A6969&amp;tr=udp%3A%2F%2Fexodus.desync.com%3A6969","seeders":0,"leechers":2,"uploader":"sceneline","files":61,"time":1319693167,"description":"- &lt;a href=&quot;\nhttp://www.Speed.Cd&quot; rel=&quot;nofollow&quot; target=&quot;_NEW&quot;&gt;\nhttp://www.Speed.Cd&lt;/a&gt;      fast  and The Hottest Private Tracker on the net\n\nPlease Seed back to make the speed Faster!!!\n\n------------------nfo--------------------------\n-                                                                                                     \n       \n     \n     \n       \n       \n     \n     \n                                         \n                                         \n                EXVID                    \n                                         \n         \n                                         \n         Filled the Archives             \n                                         \n         \n                                         \n                With:                    \n                                         \n         \n                                         \n                                    \n     E240                           \n                                    \n     SP               (C) 2009      \n                                         \n     \n     \n     \n                                                                                  \n                                                                                   \n                  Hancock.2008.PROPER.DVDRip.XviD-EXViD                             \n                                                                                   \n                                                                                  \n     \n                                                                                               \nEXViD aims to iNTERNAL those releases which have been lost in the archives.\nEXViD aims to PRE non-internal releases which have poor sources and are likely skipped by others. &lt;a href=&quot;\nhttp://www.imdb.com/title/tt0448157/&quot; rel=&quot;nofollow&quot; target=&quot;_NEW&quot;&gt;\nhttp://www.imdb.com/title/tt0448157/&lt;/a&gt;\nSubtitles: EN, ES, CS, HU, PL, TR, NL, AR, BG, HR, ET, EL, IW, HI, IS, LT, PT, RO, SR, SK, SL\nDate: 2011.10\n\nDirector: Peter Berg\n\nGenre: Action | Crime | Fantasy | Sci-Fi\n\nPlot:\nA hard-living superhero who has fallen out of favor with the public enters into a questionable\nrelationship with the wife of the public relations professional who's trying to repair his\nimage.\n\nCast:\nWill Smith \t ... \t John Hancock\nCharlize Theron \t ... \t Mary\nJason Bateman \t ... \t Ray\nJae Head \t ... \t Aaron\nEddie Marsan \t ... \t Red\nDavid Mattey \t ... \t Man Mountain\nMaetrix Fitten \t ... \t Matrix\nThomas Lennon \t ... \t Mike\nJohnny Galecki \t ... \t Jeremy\nHayley Marie Norman \t ... \t Hottie\nDorothy Cecchi \t ... \t Woman in Dive Bar\nMichelle Lemon \t ... \t Girl at Bus Bench\nAkiva Goldsman \t ... \t Executive\nMichael Mann \t ... \t Executive\nBrad Leland \t ... \t Executive\n\nStats:\nFormat                           : AVI\nFormat/Info                      : Audio Video Interleave\nFile size                        : 701 MiB\nDuration                         : 1h 28mn\nOverall bit rate                 : 1 107 Kbps\nWriting application              : Nandub v1.0rc2\nWriting library                  : Nandub build 1852/release\n\nVideo\nID                               : 0\nFormat                           : MPEG-4 Visual\nFormat profile                   : Advanced Simple@L5\nFormat settings, BVOP            : 2\nFormat settings, QPel            : No\nFormat settings, GMC             : No warppoints\nFormat settings, Matrix          : Default (H.263)\nCodec ID                         : XVID\nCodec ID/Hint                    : XviD\nDuration                         : 1h 28mn\nBit rate                         : 971 Kbps\nWidth                            : 640 pixels\nHeight                           : 272 pixels\nDisplay aspect ratio             : 2.35:1\nFrame rate                       : 25.000 fps\nColor space                      : YUV\nChroma subsampling               : 4:2:0\nBit depth                        : 8 bits\nScan type                        : Progressive\nCompression mode                 : Lossy\nBits/(Pixel*Frame)               : 0.223\nStream size                      : 614 MiB (88%)\nWriting library                  : XviD 64\n\nAudio\nID                               : 1\nFormat                           : MPEG Audio\nFormat version                   : Version 1\nFormat profile                   : Layer 3\nMode                             : Joint stereo\nMode extension                   : MS Stereo\nCodec ID                         : 55\nCodec ID/Hint                    : MP3\nDuration                         : 1h 28mn\nBit rate mode                    : Variable\nBit rate                         : 128 Kbps\nChannel(s)                       : 2 channels\nSampling rate                    : 48.0 KHz\nCompression mode                 : Lossy\nStream size                      : 77.9 MiB (11%)\nAlignment                        : Aligned on interleaves\nInterleave, duration             : 24 ms (0.60 video frame)\nInterleave, preload duration     : 143 ms\nWriting library                  : LAME3.98r\nEncoding settings                : -m j -V 4 -q 3 -lowpass 17 --abr 128\n\n\n\n\nRelease notes:\nALLiANCE rip was nuked for ghosting frames (subs are also bad). ARROW did a different version.\n\nenjoy!\n\nLooking for:\n75TB+ Archives\nDUTCH/FLEMiSH Archives\n                                                                                                    \nGreets: CRBS EPiSODE FiCO FLS iLS KLASSiGER LiPSYNC MADE NODLABS RUNNER SPRiNTER      \n   \n\n                                                                    ASCII DONE BY XX^NFO 2oo9","torrent":{"xt":"urn:btih:50aed0f023b847f42c12ec51335addf3938330e9","amp;dn":"Hancock.2008.PROPER.DVDRip.XviD-EXViD","amp;tr":["udp%3A%2F%2Ftracker.openbittorrent.com%3A80","udp%3A%2F%2Fopen.demonii.com%3A1337","udp%3A%2F%2Ftracker.coppersurfer.tk%3A6969","udp%3A%2F%2Fexodus.desync.com%3A6969"],"infoHash":"50aed0f023b847f42c12ec51335addf3938330e9","infoHashBuffer":{"type":"Buffer","data":[80,174,208,240,35,184,71,244,44,18,236,81,51,90,221,243,147,131,48,233]},"announce":[],"urlList":[]}}